<svg width="134" height="32" viewBox="0 0 134 32" fill="none" xmlns="http://www.w3.org/2000/svg">
<g clip-path="url(#clip0)">
<path d="M27.0893 5.82663C25.0147 4.87431 22.8253 4.19522 20.5759 3.80636C20.5554 3.80255 20.5343 3.80528 20.5155 3.81416C20.4967 3.82304 20.4812 3.83762 20.4712 3.85583C20.1899 4.35623 19.8783 5.0089 19.6601 5.52183C17.2005 5.15356 14.7535 5.15356 12.3444 5.52183C12.1263 4.99743 11.8033 4.35623 11.5208 3.85583C11.5103 3.83804 11.4948 3.82381 11.4761 3.81501C11.4574 3.80621 11.4365 3.80325 11.4161 3.8065C9.16651 4.19445 6.97693 4.87349 4.90254 5.8265C4.88479 5.83408 4.86984 5.84698 4.85974 5.86343C0.711205 12.0613 -0.425328 18.1068 0.132272 24.0773C0.133849 24.0919 0.138343 24.1061 0.145489 24.1189C0.152634 24.1318 0.162286 24.143 0.173872 24.1521C2.91094 26.1622 5.56227 27.3825 8.1644 28.1913C8.18464 28.1973 8.20623 28.197 8.2263 28.1905C8.24636 28.1839 8.26394 28.1713 8.27667 28.1545C8.89214 27.314 9.4408 26.4276 9.91134 25.4956C9.91781 25.4828 9.9215 25.4688 9.92217 25.4545C9.92284 25.4402 9.92048 25.426 9.91524 25.4126C9.91 25.3993 9.902 25.3873 9.89177 25.3773C9.88154 25.3673 9.8693 25.3596 9.85587 25.3546C8.98547 25.0245 8.1568 24.622 7.3596 24.1649C7.34507 24.1564 7.33286 24.1444 7.32405 24.13C7.31524 24.1156 7.31011 24.0993 7.30911 24.0825C7.30811 24.0656 7.31127 24.0488 7.31831 24.0335C7.32535 24.0182 7.33605 24.0048 7.34947 23.9946C7.5172 23.8689 7.68507 23.7382 7.8452 23.6061C7.85944 23.5944 7.87666 23.5868 7.89494 23.5844C7.91322 23.5819 7.93183 23.5846 7.94867 23.5921C13.1857 25.9832 18.8553 25.9832 24.0305 23.5921C24.0474 23.5841 24.0662 23.581 24.0847 23.5833C24.1032 23.5855 24.1207 23.593 24.1352 23.6048C24.2955 23.7368 24.4632 23.8689 24.6323 23.9946C24.6457 24.0047 24.6565 24.018 24.6636 24.0332C24.6708 24.0485 24.674 24.0652 24.6732 24.082C24.6723 24.0988 24.6673 24.1152 24.6586 24.1296C24.65 24.144 24.6379 24.1561 24.6235 24.1648C23.826 24.6306 22.9906 25.0282 22.1261 25.3533C22.1127 25.3584 22.1005 25.3663 22.0904 25.3765C22.0802 25.3867 22.0723 25.3989 22.0672 25.4123C22.0621 25.4257 22.0598 25.4401 22.0606 25.4544C22.0614 25.4688 22.0653 25.4828 22.0719 25.4956C22.5524 26.4262 23.1011 27.3126 23.7052 28.1532C23.7175 28.1705 23.735 28.1835 23.7552 28.1904C23.7753 28.1972 23.7971 28.1975 23.8175 28.1913C26.4321 27.3824 29.0835 26.1621 31.8205 24.1521C31.8323 24.1435 31.8421 24.1325 31.8493 24.1198C31.8565 24.1071 31.8609 24.093 31.8623 24.0785C32.5295 17.1758 30.7447 11.18 27.1309 5.86463C27.1221 5.84736 27.1073 5.83384 27.0893 5.8265V5.82663ZM10.6933 20.4418C9.11667 20.4418 7.81747 18.9942 7.81747 17.2165C7.81747 15.4389 9.09147 13.9913 10.6935 13.9913C12.3079 13.9913 13.5944 15.4516 13.5692 17.2166C13.5692 18.9942 12.2952 20.4418 10.6933 20.4418V20.4418ZM21.3264 20.4418C19.7497 20.4418 18.4505 18.9942 18.4505 17.2165C18.4505 15.4389 19.7244 13.9913 21.3264 13.9913C22.9408 13.9913 24.2273 15.4516 24.2021 17.2166C24.2021 18.9942 22.9408 20.4418 21.3264 20.4418V20.4418Z" fill="#5865F2"/>
</g>
<path d="M51.6364 24C56.9545 24 60.108 20.7102 60.108 15.2557C60.108 9.81818 56.9545 6.54545 51.7557 6.54545H45.7216V24H51.6364ZM48.8835 21.2642V9.28125H51.5767C55.1222 9.28125 56.9716 11.2585 56.9716 15.2557C56.9716 19.2699 55.1222 21.2642 51.483 21.2642H48.8835ZM62.9759 24H66.0611V10.9091H62.9759V24ZM64.527 9.05114C65.5071 9.05114 66.3082 8.30114 66.3082 7.38068C66.3082 6.4517 65.5071 5.7017 64.527 5.7017C63.5384 5.7017 62.7372 6.4517 62.7372 7.38068C62.7372 8.30114 63.5384 9.05114 64.527 9.05114ZM79.5803 14.3693C79.1541 12.1534 77.3814 10.7386 74.3132 10.7386C71.1598 10.7386 69.0121 12.2898 69.0206 14.7102C69.0121 16.6193 70.1882 17.8807 72.7024 18.4006L74.9354 18.8693C76.1371 19.1335 76.6996 19.6193 76.6996 20.3608C76.6996 21.2557 75.728 21.929 74.2621 21.929C72.8473 21.929 71.9268 21.3153 71.6626 20.1392L68.6541 20.429C69.0376 22.8324 71.0575 24.2557 74.2706 24.2557C77.5433 24.2557 79.853 22.5597 79.8615 20.0795C79.853 18.2131 78.6513 17.071 76.1797 16.5341L73.9467 16.0568C72.6172 15.7585 72.0888 15.2983 72.0973 14.5398C72.0888 13.6534 73.0689 13.0398 74.3558 13.0398C75.7791 13.0398 76.5291 13.8153 76.7678 14.6761L79.5803 14.3693ZM88.1158 24.2557C91.4055 24.2557 93.5021 22.304 93.7237 19.5256H90.7749C90.5107 20.9318 89.4964 21.7415 88.1413 21.7415C86.2152 21.7415 84.9709 20.1307 84.9709 17.4545C84.9709 14.8125 86.2408 13.2273 88.1413 13.2273C89.6243 13.2273 90.5362 14.1818 90.7749 15.4432H93.7237C93.5107 12.6051 91.2947 10.7386 88.0987 10.7386C84.2635 10.7386 81.843 13.5085 81.843 17.5057C81.843 21.4688 84.2038 24.2557 88.1158 24.2557ZM101.967 24.2557C105.803 24.2557 108.24 21.554 108.24 17.5057C108.24 13.4489 105.803 10.7386 101.967 10.7386C98.1321 10.7386 95.6946 13.4489 95.6946 17.5057C95.6946 21.554 98.1321 24.2557 101.967 24.2557ZM101.984 21.7841C99.8622 21.7841 98.8224 19.892 98.8224 17.4972C98.8224 15.1023 99.8622 13.1847 101.984 13.1847C104.072 13.1847 105.112 15.1023 105.112 17.4972C105.112 19.892 104.072 21.7841 101.984 21.7841ZM110.859 24H113.944V16.304C113.944 14.642 115.197 13.4659 116.893 13.4659C117.413 13.4659 118.06 13.5597 118.325 13.6449V10.8068C118.043 10.7557 117.558 10.7216 117.217 10.7216C115.717 10.7216 114.464 11.5739 113.987 13.0909H113.85V10.9091H110.859V24ZM124.693 24.2301C126.943 24.2301 127.957 22.892 128.443 21.9375H128.631V24H131.665V6.54545H128.571V13.0739H128.443C127.974 12.1278 127.011 10.7386 124.702 10.7386C121.676 10.7386 119.298 13.108 119.298 17.4716C119.298 21.7841 121.608 24.2301 124.693 24.2301ZM125.554 21.6989C123.517 21.6989 122.443 19.9091 122.443 17.4545C122.443 15.017 123.5 13.2699 125.554 13.2699C127.54 13.2699 128.631 14.9148 128.631 17.4545C128.631 19.9943 127.523 21.6989 125.554 21.6989Z" fill="#5865F2"/>
<defs>
<clipPath id="clip0">
<rect width="32" height="32" fill="white"/>
</clipPath>
</defs>
</svg>
