<svg width="153" height="32" viewBox="0 0 153 32" fill="none" xmlns="http://www.w3.org/2000/svg">
<g clip-path="url(#clip0)">
<path d="M15.9253 4.35556e-05C11.6948 0.0197862 7.64431 1.71421 4.65986 4.71265C1.67541 7.7111 -4.60654e-05 11.7695 9.49913e-10 16C9.49921e-10 20.2435 1.68571 24.3132 4.68629 27.3138C7.68687 30.3143 11.7565 32 16 32C20.2435 32 24.3131 30.3143 27.3137 27.3138C30.3143 24.3132 32 20.2435 32 16C32 11.7566 30.3143 7.68692 27.3137 4.68634C24.3131 1.68575 20.2435 4.35556e-05 16 4.35556e-05C15.9751 -1.45185e-05 15.9502 -1.45185e-05 15.9253 4.35556e-05V4.35556e-05ZM22.5413 9.63204C22.6747 9.62938 22.9693 9.66271 23.1613 9.81871C23.2889 9.92951 23.3703 10.0841 23.3893 10.252C23.4107 10.376 23.4373 10.66 23.416 10.8814C23.176 13.412 22.1333 19.5507 21.6027 22.384C21.3787 23.584 20.9373 23.9854 20.5093 24.024C19.5813 24.1107 18.876 23.4107 17.976 22.8214C16.568 21.8974 15.772 21.3227 14.4053 20.4214C12.8253 19.3814 13.8493 18.808 14.7493 17.8747C14.9853 17.6294 19.0787 13.9054 19.1587 13.568C19.168 13.5254 19.1773 13.368 19.084 13.2854C18.9907 13.2027 18.852 13.2307 18.752 13.2534C18.6107 13.2854 16.3613 14.7734 12.004 17.7134C11.364 18.1534 10.7867 18.3667 10.268 18.3534C9.69733 18.3427 8.59867 18.032 7.78133 17.7667C6.77867 17.44 5.98267 17.268 6.052 16.7147C6.088 16.4267 6.48533 16.132 7.24267 15.8307C11.9067 13.7987 15.016 12.4587 16.5733 11.812C21.016 9.96404 21.94 9.64271 22.5413 9.63204V9.63204Z" fill="#26A5E4"/>
</g>
<path d="M44.9545 9.19602H50.3494V24H53.4858V9.19602H58.8807V6.54545H44.9545V9.19602ZM65.326 24.2557C68.3771 24.2557 70.4737 22.7642 71.0192 20.4886L68.1385 20.1648C67.7209 21.2727 66.6982 21.8523 65.3686 21.8523C63.3743 21.8523 62.0533 20.5398 62.0277 18.2983H71.147V17.3523C71.147 12.7585 68.3857 10.7386 65.1641 10.7386C61.4141 10.7386 58.968 13.4915 58.968 17.5312C58.968 21.6392 61.38 24.2557 65.326 24.2557ZM62.0362 16.2188C62.13 14.5483 63.3658 13.142 65.2067 13.142C66.9794 13.142 68.1726 14.4375 68.1896 16.2188H62.0362ZM76.8423 6.54545H73.7571V24H76.8423V6.54545ZM85.8104 24.2557C88.8615 24.2557 90.9581 22.7642 91.5036 20.4886L88.6229 20.1648C88.2053 21.2727 87.1825 21.8523 85.853 21.8523C83.8587 21.8523 82.5376 20.5398 82.5121 18.2983H91.6314V17.3523C91.6314 12.7585 88.87 10.7386 85.6484 10.7386C81.8984 10.7386 79.4524 13.4915 79.4524 17.5312C79.4524 21.6392 81.8643 24.2557 85.8104 24.2557ZM82.5206 16.2188C82.6143 14.5483 83.8501 13.142 85.6911 13.142C87.4638 13.142 88.657 14.4375 88.674 16.2188H82.5206ZM99.9347 29.1818C103.472 29.1818 106.08 27.5625 106.08 24.2131V10.9091H103.037V13.0739H102.866C102.398 12.1278 101.418 10.7386 99.108 10.7386C96.0824 10.7386 93.7045 13.108 93.7045 17.4119C93.7045 21.6818 96.0824 23.8125 99.0994 23.8125C101.341 23.8125 102.389 22.6108 102.866 21.6477H103.02V24.1278C103.02 26.054 101.741 26.8466 99.9858 26.8466C98.1278 26.8466 97.3097 25.9688 96.9347 25.2017L94.1562 25.875C94.7188 27.7074 96.6023 29.1818 99.9347 29.1818ZM99.9602 21.392C97.9233 21.392 96.8494 19.8068 96.8494 17.3949C96.8494 15.017 97.9062 13.2699 99.9602 13.2699C101.946 13.2699 103.037 14.9148 103.037 17.3949C103.037 19.892 101.929 21.392 99.9602 21.392ZM109.241 24H112.327V16.304C112.327 14.642 113.58 13.4659 115.276 13.4659C115.795 13.4659 116.443 13.5597 116.707 13.6449V10.8068C116.426 10.7557 115.94 10.7216 115.599 10.7216C114.099 10.7216 112.847 11.5739 112.369 13.0909H112.233V10.9091H109.241V24ZM122.266 24.2642C124.32 24.2642 125.548 23.3011 126.11 22.2017H126.212V24H129.178V15.2386C129.178 11.7784 126.357 10.7386 123.86 10.7386C121.107 10.7386 118.994 11.9659 118.312 14.3523L121.192 14.7614C121.499 13.8665 122.369 13.0994 123.877 13.0994C125.309 13.0994 126.093 13.8324 126.093 15.1193V15.1705C126.093 16.0568 125.164 16.0994 122.854 16.3466C120.315 16.6193 117.886 17.3778 117.886 20.3267C117.886 22.9006 119.769 24.2642 122.266 24.2642ZM123.067 21.9972C121.781 21.9972 120.86 21.4091 120.86 20.2756C120.86 19.0909 121.891 18.5966 123.272 18.4006C124.082 18.2898 125.701 18.0852 126.102 17.7614V19.304C126.102 20.7614 124.925 21.9972 123.067 21.9972ZM132.281 24H135.366V16.0398C135.366 14.429 136.44 13.3381 137.769 13.3381C139.073 13.3381 139.968 14.2159 139.968 15.5625V24H142.994V15.8352C142.994 14.3608 143.871 13.3381 145.363 13.3381C146.607 13.3381 147.596 14.071 147.596 15.6903V24H150.69V15.2131C150.69 12.2898 149.002 10.7386 146.599 10.7386C144.698 10.7386 143.249 11.6761 142.67 13.1335H142.533C142.031 11.6506 140.761 10.7386 138.996 10.7386C137.241 10.7386 135.928 11.642 135.383 13.1335H135.229V10.9091H132.281V24Z" fill="#26A5E4"/>
<defs>
<clipPath id="clip0">
<rect width="32" height="32" fill="white"/>
</clipPath>
</defs>
</svg>
