<svg width="170" height="32" viewBox="0 0 170 32" fill="none" xmlns="http://www.w3.org/2000/svg">
<path d="M20.912 0H11.088C2.12267 0 0 2.12267 0 11.088V20.912C0 29.8773 2.12267 32 11.088 32H20.912C29.8773 32 32 29.8773 32 20.912V11.088C32 2.12267 29.8547 0 20.912 0ZM25.8347 22.8307H23.5093C22.6293 22.8307 22.3573 22.1307 20.776 20.528C19.3987 19.1947 18.7893 19.0147 18.4507 19.0147C17.976 19.0147 17.84 19.1507 17.84 19.8053V21.9053C17.84 22.4707 17.66 22.8093 16.1693 22.8093C13.708 22.8093 10.9747 21.3187 9.056 18.54C6.16533 14.476 5.37333 11.4267 5.37333 10.7947C5.37333 10.456 5.50933 10.14 6.164 10.14H8.48933C9.076 10.14 9.30267 10.4107 9.52933 11.0427C10.68 14.3627 12.6 17.276 13.3907 17.276C13.684 17.276 13.82 17.14 13.82 16.396V12.9613C13.7293 11.38 12.8933 11.2453 12.8933 10.6813C12.8933 10.4093 13.12 10.1387 13.48 10.1387H17.1387C17.636 10.1387 17.816 10.4093 17.816 10.996V15.6267C17.816 16.1227 18.0427 16.304 18.1773 16.304C18.4707 16.304 18.72 16.1227 19.2613 15.5813C20.9333 13.7067 22.1293 10.816 22.1293 10.816C22.288 10.4773 22.5587 10.1613 23.1467 10.1613H25.472C26.172 10.1613 26.3307 10.5213 26.172 11.0187C25.8787 12.3747 23.0333 16.3933 23.0333 16.3933C22.7853 16.8 22.6947 16.98 23.0333 17.4333C23.2813 17.772 24.0947 18.472 24.6373 19.104C25.6307 20.2333 26.3973 21.1813 26.6013 21.8373C26.828 22.4907 26.488 22.8293 25.8333 22.8293L25.8347 22.8307Z" fill="#3D93F6"/>
<path d="M44.7216 24H51.7869C55.7841 24 57.7443 21.9631 57.7443 19.2443C57.7443 16.6023 55.8693 15.0511 54.0114 14.9574V14.7869C55.7159 14.3864 57.0625 13.1932 57.0625 11.071C57.0625 8.47159 55.1875 6.54545 51.4034 6.54545H44.7216V24ZM47.8835 21.358V16.2443H51.3693C53.321 16.2443 54.5312 17.4375 54.5312 18.9972C54.5312 20.3864 53.5767 21.358 51.2841 21.358H47.8835ZM47.8835 13.9688V9.15341H51.0795C52.9375 9.15341 53.9006 10.1335 53.9006 11.4801C53.9006 13.0142 52.6562 13.9688 51.0114 13.9688H47.8835ZM70.9524 24H74.8473L67.6541 14.5057L74.549 6.54545H70.6541L64.4496 13.7216H63.657V6.54545H60.495V24H63.657V16.3722H65.2081L70.9524 24ZM81.608 24.2557C85.4432 24.2557 87.8807 21.554 87.8807 17.5057C87.8807 13.4489 85.4432 10.7386 81.608 10.7386C77.7727 10.7386 75.3352 13.4489 75.3352 17.5057C75.3352 21.554 77.7727 24.2557 81.608 24.2557ZM81.625 21.7841C79.5028 21.7841 78.4631 19.892 78.4631 17.4972C78.4631 15.1023 79.5028 13.1847 81.625 13.1847C83.7131 13.1847 84.7528 15.1023 84.7528 17.4972C84.7528 19.892 83.7131 21.7841 81.625 21.7841ZM93.4737 10.9091H90.4993V24H93.4737V18.7074H98.5447V24H101.511V10.9091H98.5447V16.1761H93.4737V10.9091ZM103.166 13.4403H107.402V24H110.385V13.4403H114.621V10.9091H103.166V13.4403ZM120.305 24.2642C122.359 24.2642 123.587 23.3011 124.149 22.2017H124.251V24H127.217V15.2386C127.217 11.7784 124.396 10.7386 121.899 10.7386C119.146 10.7386 117.033 11.9659 116.351 14.3523L119.232 14.7614C119.538 13.8665 120.408 13.0994 121.916 13.0994C123.348 13.0994 124.132 13.8324 124.132 15.1193V15.1705C124.132 16.0568 123.203 16.0994 120.893 16.3466C118.354 16.6193 115.925 17.3778 115.925 20.3267C115.925 22.9006 117.808 24.2642 120.305 24.2642ZM121.107 21.9972C119.82 21.9972 118.899 21.4091 118.899 20.2756C118.899 19.0909 119.93 18.5966 121.311 18.4006C122.121 18.2898 123.74 18.0852 124.141 17.7614V19.304C124.141 20.7614 122.964 21.9972 121.107 21.9972ZM130.32 24H133.405V19.0653H134.913L138.501 24H142.234L137.334 17.3352L142.183 10.9091H138.467L134.53 16.1932H133.405V10.9091H130.32V24ZM143.268 13.4403H147.504V24H150.487V13.4403H154.722V10.9091H143.268V13.4403ZM162.435 24.2557C165.487 24.2557 167.583 22.7642 168.129 20.4886L165.248 20.1648C164.83 21.2727 163.808 21.8523 162.478 21.8523C160.484 21.8523 159.163 20.5398 159.137 18.2983H168.256V17.3523C168.256 12.7585 165.495 10.7386 162.273 10.7386C158.523 10.7386 156.077 13.4915 156.077 17.5312C156.077 21.6392 158.489 24.2557 162.435 24.2557ZM159.146 16.2188C159.239 14.5483 160.475 13.142 162.316 13.142C164.089 13.142 165.282 14.4375 165.299 16.2188H159.146Z" fill="#3D93F6"/>
</svg>
