<svg width="103" height="32" viewBox="0 0 103 32" fill="none" xmlns="http://www.w3.org/2000/svg">
<path d="M12.75 6.25H6.25C5.38805 6.25 4.5614 6.59241 3.9519 7.2019C3.34241 7.8114 3 8.63805 3 9.5V25.75C3 26.612 3.34241 27.4386 3.9519 28.0481C4.5614 28.6576 5.38805 29 6.25 29H22.5C23.362 29 24.1886 28.6576 24.7981 28.0481C25.4076 27.4386 25.75 26.612 25.75 25.75V19.25M19.25 3H29M29 3V12.75M29 3C22.654 9.34602 19.096 12.904 12.75 19.25" stroke="#14B8A6" stroke-width="3.55556" stroke-linecap="round" stroke-linejoin="round"/>
<path d="M60.6619 12.4347C60.125 8.55682 57.142 6.30682 53.2727 6.30682C48.7131 6.30682 45.2784 9.63068 45.2784 15.2727C45.2784 20.9062 48.6705 24.2386 53.2727 24.2386C57.4233 24.2386 60.1761 21.554 60.6619 18.2216L57.4744 18.2045C57.0739 20.25 55.4034 21.4006 53.3153 21.4006C50.4858 21.4006 48.4574 19.2784 48.4574 15.2727C48.4574 11.3352 50.4688 9.14489 53.3239 9.14489C55.446 9.14489 57.108 10.3466 57.4744 12.4347H60.6619ZM67.1882 24.2642C69.2422 24.2642 70.4695 23.3011 71.032 22.2017H71.1342V24H74.1001V15.2386C74.1001 11.7784 71.2791 10.7386 68.782 10.7386C66.0291 10.7386 63.9155 11.9659 63.2337 14.3523L66.1143 14.7614C66.4212 13.8665 67.2905 13.0994 68.799 13.0994C70.2308 13.0994 71.0149 13.8324 71.0149 15.1193V15.1705C71.0149 16.0568 70.0859 16.0994 67.7763 16.3466C65.2365 16.6193 62.8075 17.3778 62.8075 20.3267C62.8075 22.9006 64.6911 24.2642 67.1882 24.2642ZM67.9893 21.9972C66.7024 21.9972 65.782 21.4091 65.782 20.2756C65.782 19.0909 66.8132 18.5966 68.1939 18.4006C69.0036 18.2898 70.6229 18.0852 71.0234 17.7614V19.304C71.0234 20.7614 69.8473 21.9972 67.9893 21.9972ZM80.1768 19.8239V10.9091H77.2024V24H80.3814L85.6058 15.0767V24H88.5888V10.9091H85.4183L80.1768 19.8239ZM84.5746 6.40909C84.5661 7.24432 84.0888 7.98579 82.8871 7.98579C81.6683 7.98579 81.2081 7.22727 81.2081 6.40909H78.9155C78.907 8.40341 80.4496 9.75 82.8871 9.75C85.3416 9.75 86.8842 8.40341 86.8842 6.40909H84.5746ZM90.2912 13.4403H94.527V24H97.5099V13.4403H101.746V10.9091H90.2912V13.4403Z" fill="#14B8A6"/>
</svg>
